<svg width="34" height="37" viewBox="0 0 34 37" fill="none" xmlns="http://www.w3.org/2000/svg">
<g clip-path="url(#clip0_778_438)">
<rect width="34" height="36.2885" rx="8" fill="#526EFF"/>
<path d="M25.824 26.044C24.9731 26.7188 23.9022 27.2616 22.6112 27.6724C21.3496 28.0831 20.1027 28.2885 18.8704 28.2885C16.6699 28.2885 14.7482 27.8924 13.1051 27.1002C11.4914 26.2787 10.2298 25.1198 9.32029 23.6235C8.4401 22.0978 8 20.2641 8 18.1222C8 15.9804 8.48411 14.1614 9.45232 12.665C10.4205 11.1394 11.6822 9.98044 13.2372 9.18826C14.8215 8.39609 16.4792 8 18.2103 8C19.9413 8 21.4377 8.23472 22.6993 8.70416C23.9902 9.17359 25.0905 9.78973 26 10.5526L23.0073 14.5134C22.5966 14.1907 22.0244 13.868 21.291 13.5452C20.5868 13.1932 19.7506 13.0171 18.7824 13.0171C17.9315 13.0171 17.154 13.2372 16.4499 13.6773C15.7457 14.1174 15.1883 14.7188 14.7775 15.4817C14.3667 16.2445 14.1614 17.1247 14.1614 18.1222C14.1614 19.0611 14.3814 19.9267 14.8215 20.7188C15.2616 21.511 15.8631 22.1418 16.6259 22.6112C17.4181 23.0513 18.3423 23.2714 19.3985 23.2714C20.0733 23.2714 20.6895 23.1834 21.2469 23.0073C21.8337 22.802 22.3325 22.5232 22.7433 22.1711L25.824 26.044Z" fill="white"/>
</g>
<defs>
<clipPath id="clip0_778_438">
<rect width="34" height="36.2885" rx="8" fill="white"/>
</clipPath>
</defs>
</svg>
