<svg width="260" height="69" viewBox="0 0 260 69" fill="none" xmlns="http://www.w3.org/2000/svg">
<rect x="21.5" y="16.0803" width="34" height="36.2885" rx="8" fill="#526EFF"/>
<path d="M47.324 42.1243C46.4731 42.7991 45.4022 43.3419 44.1112 43.7527C42.8496 44.1635 41.6027 44.3688 40.3704 44.3688C38.1699 44.3688 36.2482 43.9727 34.6051 43.1806C32.9914 42.3591 31.7298 41.2001 30.8203 39.7038C29.9401 38.1781 29.5 36.3444 29.5 34.2026C29.5 32.0608 29.9841 30.2417 30.9523 28.7454C31.9205 27.2197 33.1822 26.0608 34.7372 25.2686C36.3215 24.4764 37.9792 24.0803 39.7103 24.0803C41.4413 24.0803 42.9377 24.315 44.1993 24.7845C45.4902 25.2539 46.5905 25.8701 47.5 26.6329L44.5073 30.5938C44.0966 30.271 43.5244 29.9483 42.791 29.6256C42.0868 29.2735 41.2506 29.0974 40.2824 29.0974C39.4315 29.0974 38.654 29.3175 37.9499 29.7576C37.2457 30.1977 36.6883 30.7991 36.2775 31.562C35.8667 32.3248 35.6614 33.205 35.6614 34.2026C35.6614 35.1414 35.8814 36.007 36.3215 36.7991C36.7616 37.5913 37.3631 38.2221 38.1259 38.6916C38.9181 39.1317 39.8423 39.3517 40.8985 39.3517C41.5733 39.3517 42.1895 39.2637 42.7469 39.0877C43.3337 38.8823 43.8325 38.6035 44.2433 38.2515L47.324 42.1243Z" fill="white"/>
<path d="M76.9521 42.7246H72.418L78.3072 25.2701H83.9237L89.8129 42.7246H85.2788L81.1793 29.6678H81.043L76.9521 42.7246ZM76.3469 35.8553H85.8242V39.0598H76.3469V35.8553ZM91.6921 42.7246V25.2701H98.9023C100.209 25.2701 101.337 25.5059 102.286 25.9774C103.24 26.4434 103.976 27.1138 104.493 27.9888C105.01 28.8581 105.269 29.8894 105.269 31.0826C105.269 32.2928 105.005 33.3212 104.476 34.1678C103.948 35.0087 103.198 35.6507 102.226 36.0939C101.255 36.5314 100.104 36.7502 98.7745 36.7502H94.2148V33.4263H97.9904C98.6268 33.4263 99.158 33.3439 99.5842 33.1792C100.016 33.0087 100.343 32.753 100.564 32.4121C100.786 32.0655 100.897 31.6223 100.897 31.0826C100.897 30.5428 100.786 30.0968 100.564 29.7445C100.343 29.3865 100.016 29.1195 99.5842 28.9434C99.1523 28.7615 98.6211 28.6706 97.9904 28.6706H95.9109V42.7246H91.6921ZM101.519 34.7473L105.865 42.7246H101.263L97.0018 34.7473H101.519ZM123.426 31.5939H119.165C119.108 31.1564 118.992 30.7615 118.816 30.4093C118.64 30.057 118.407 29.7559 118.117 29.5059C117.827 29.2559 117.483 29.0655 117.086 28.9348C116.694 28.7985 116.259 28.7303 115.782 28.7303C114.935 28.7303 114.205 28.9377 113.591 29.3524C112.983 29.7672 112.515 30.3667 112.185 31.1507C111.861 31.9348 111.699 32.8837 111.699 33.9973C111.699 35.1564 111.864 36.128 112.194 36.9121C112.529 37.6905 112.998 38.2786 113.6 38.6763C114.208 39.0684 114.926 39.2644 115.756 39.2644C116.222 39.2644 116.645 39.2047 117.026 39.0854C117.412 38.9661 117.75 38.7928 118.04 38.5655C118.336 38.3326 118.577 38.0513 118.765 37.7218C118.958 37.3865 119.091 37.0087 119.165 36.5882L123.426 36.6138C123.353 37.3865 123.128 38.1479 122.753 38.8979C122.384 39.6479 121.875 40.3326 121.228 40.9519C120.58 41.5655 119.79 42.0542 118.858 42.4178C117.932 42.7814 116.87 42.9632 115.671 42.9632C114.091 42.9632 112.676 42.6167 111.426 41.9235C110.182 41.2246 109.199 40.2076 108.478 38.8723C107.756 37.5371 107.395 35.9121 107.395 33.9973C107.395 32.0769 107.762 30.449 108.495 29.1138C109.228 27.7786 110.219 26.7644 111.469 26.0712C112.719 25.378 114.12 25.0314 115.671 25.0314C116.728 25.0314 117.705 25.1792 118.603 25.4746C119.5 25.7644 120.29 26.1905 120.972 26.753C121.654 27.3098 122.208 27.9945 122.634 28.807C123.06 29.6195 123.324 30.5485 123.426 31.5939ZM125.841 42.7246V25.2701H130.059V32.2757H136.937V25.2701H141.147V42.7246H136.937V35.7104H130.059V42.7246H125.841ZM148.012 25.2701V42.7246H143.794V25.2701H148.012ZM154.624 25.2701L158.527 38.0542H158.672L162.576 25.2701H167.297L161.408 42.7246H155.792L149.902 25.2701H154.624ZM169.176 42.7246V25.2701H181.347V28.6962H173.395V32.2757H180.725V35.7104H173.395V39.2985H181.347V42.7246H169.176ZM189.145 42.7246V25.2701H196.424C197.73 25.2701 198.824 25.4547 199.705 25.824C200.591 26.1934 201.256 26.7104 201.699 27.3752C202.148 28.0399 202.373 28.8098 202.373 29.6848C202.373 30.3496 202.233 30.9434 201.955 31.4661C201.676 31.9831 201.293 32.4121 200.804 32.753C200.316 33.0939 199.75 33.3326 199.108 33.4689V33.6394C199.813 33.6735 200.463 33.8638 201.06 34.2104C201.662 34.557 202.145 35.04 202.509 35.6593C202.873 36.2729 203.054 37.0002 203.054 37.8411C203.054 38.7786 202.816 39.6167 202.338 40.3553C201.861 41.0882 201.171 41.6678 200.267 42.0939C199.364 42.5144 198.267 42.7246 196.978 42.7246H189.145ZM193.364 39.324H195.972C196.887 39.324 197.56 39.1507 197.992 38.8042C198.429 38.4576 198.648 37.9746 198.648 37.3553C198.648 36.9064 198.543 36.5201 198.333 36.1962C198.123 35.8667 197.824 35.6138 197.438 35.4377C197.051 35.2559 196.588 35.1649 196.049 35.1649H193.364V39.324ZM193.364 32.4462H195.699C196.159 32.4462 196.569 32.3695 196.926 32.2161C197.284 32.0627 197.563 31.8411 197.762 31.5513C197.966 31.2615 198.069 30.9121 198.069 30.503C198.069 29.9178 197.861 29.4576 197.446 29.1223C197.032 28.7871 196.472 28.6195 195.767 28.6195H193.364V32.4462ZM221.557 33.9973C221.557 35.9178 221.188 37.5456 220.449 38.8809C219.711 40.2161 218.711 41.2303 217.449 41.9235C216.194 42.6167 214.784 42.9632 213.222 42.9632C211.654 42.9632 210.242 42.6138 208.986 41.915C207.73 41.2161 206.733 40.2019 205.995 38.8723C205.262 37.5371 204.895 35.9121 204.895 33.9973C204.895 32.0769 205.262 30.449 205.995 29.1138C206.733 27.7786 207.73 26.7644 208.986 26.0712C210.242 25.378 211.654 25.0314 213.222 25.0314C214.784 25.0314 216.194 25.378 217.449 26.0712C218.711 26.7644 219.711 27.7786 220.449 29.1138C221.188 30.449 221.557 32.0769 221.557 33.9973ZM217.245 33.9973C217.245 32.861 217.083 31.9007 216.759 31.1167C216.441 30.3326 215.98 29.7388 215.378 29.3354C214.782 28.932 214.063 28.7303 213.222 28.7303C212.387 28.7303 211.668 28.932 211.066 29.3354C210.463 29.7388 210 30.3326 209.676 31.1167C209.358 31.9007 209.199 32.861 209.199 33.9973C209.199 35.1337 209.358 36.0939 209.676 36.878C210 37.6621 210.463 38.2559 211.066 38.6593C211.668 39.0627 212.387 39.2644 213.222 39.2644C214.063 39.2644 214.782 39.0627 215.378 38.6593C215.98 38.2559 216.441 37.6621 216.759 36.878C217.083 36.0939 217.245 35.1337 217.245 33.9973ZM222.652 28.6962V25.2701H237.405V28.6962H232.113V42.7246H227.953V28.6962H222.652Z" fill="white"/>
</svg>
