<svg width="18" height="18" viewBox="0 0 18 18" fill="none" xmlns="http://www.w3.org/2000/svg">
<mask id="path-1-inside-1_99_396" fill="white">
<path d="M1.645 12.9874C-0.54833 10.7941 -0.548333 7.23797 1.64499 5.04465L5.04464 1.645C7.23797 -0.548331 10.7941 -0.548333 12.9874 1.64499L16.355 5.01261C18.5483 7.20594 18.5483 10.762 16.355 12.9554L12.9554 16.355C10.762 18.5483 7.20594 18.5483 5.01261 16.355L1.645 12.9874Z"/>
</mask>
<path d="M13.7053 11.9545L15.0015 11.1994L13.7053 11.9545ZM12.7274 10.771L13.6329 9.57517L12.7274 10.771ZM5.95724 10.771L5.05177 9.57517L5.95724 10.771ZM4.33221 16.0452L6.27542 12.7095L3.68319 11.1994L1.73998 14.5352L4.33221 16.0452ZM12.4092 12.7095L14.3524 16.0452L16.9447 14.5352L15.0015 11.1994L12.4092 12.7095ZM6.86271 11.9669C8.32392 10.8606 10.3607 10.8606 11.8219 11.9669L13.6329 9.57517C11.1006 7.65781 7.58408 7.65781 5.05177 9.57517L6.86271 11.9669ZM15.0015 11.1994C14.7012 10.6841 14.2757 10.0619 13.6329 9.57517L11.8219 11.9669C12.0028 12.1039 12.1894 12.3322 12.4092 12.7095L15.0015 11.1994ZM6.27542 12.7095C6.49523 12.3322 6.68186 12.1039 6.86271 11.9669L5.05177 9.57517C4.40899 10.0619 3.9834 10.6841 3.68319 11.1994L6.27542 12.7095ZM12.9554 16.355L10.834 14.2337L10.834 14.2337L12.9554 16.355ZM5.01261 16.355L2.89129 18.4763L2.89129 18.4763L5.01261 16.355ZM16.355 5.01261L14.2337 7.13393L14.2337 7.13393L16.355 5.01261ZM16.355 12.9554L18.4763 15.0767L18.4763 15.0767L16.355 12.9554ZM5.04464 1.645L2.92332 -0.476324L2.92332 -0.476324L5.04464 1.645ZM12.9874 1.64499L15.1087 -0.476326L15.1087 -0.476326L12.9874 1.64499ZM1.64499 5.04465L3.76631 7.16597L3.76631 7.16597L1.64499 5.04465ZM1.645 12.9874L3.76632 10.8661L3.76632 10.8661L1.645 12.9874ZM3.76631 7.16597L7.16596 3.76632L2.92332 -0.476324L-0.476326 2.92333L3.76631 7.16597ZM10.8661 3.76631L14.2337 7.13393L18.4763 2.89129L15.1087 -0.476326L10.8661 3.76631ZM14.2337 10.834L10.834 14.2337L15.0767 18.4763L18.4763 15.0767L14.2337 10.834ZM7.13393 14.2337L3.76632 10.8661L-0.476324 15.1087L2.89129 18.4763L7.13393 14.2337ZM10.834 14.2337C9.81228 15.2554 8.15568 15.2554 7.13393 14.2337L2.89129 18.4763C6.25619 21.8412 11.7118 21.8412 15.0767 18.4763L10.834 14.2337ZM14.2337 7.13393C15.2554 8.15569 15.2554 9.81228 14.2337 10.834L18.4763 15.0767C21.8412 11.7118 21.8412 6.25619 18.4763 2.89129L14.2337 7.13393ZM7.16596 3.76632C8.18772 2.74456 9.84431 2.74456 10.8661 3.76631L15.1087 -0.476326C11.7438 -3.84123 6.28822 -3.84122 2.92332 -0.476324L7.16596 3.76632ZM-0.476326 2.92333C-3.84123 6.28823 -3.84122 11.7438 -0.476324 15.1087L3.76632 10.8661C2.74456 9.84431 2.74456 8.18772 3.76631 7.16597L-0.476326 2.92333Z" fill="#A098F5" mask="url(#path-1-inside-1_99_396)"/>
</svg>
