<svg width="18" height="18" viewBox="0 0 18 18" fill="none" xmlns="http://www.w3.org/2000/svg">
<mask id="path-1-inside-1_99_396" fill="white">
<path d="M1.645 12.9874C-0.54833 10.7941 -0.548333 7.23797 1.64499 5.04465L5.04464 1.645C7.23797 -0.548331 10.7941 -0.548333 12.9874 1.64499L16.355 5.01261C18.5483 7.20594 18.5483 10.762 16.355 12.9554L12.9554 16.355C10.762 18.5483 7.20594 18.5483 5.01261 16.355L1.645 12.9874Z"/>
</mask>
<path d="M13.7053 11.9545L14.5694 11.4511L13.7053 11.9545ZM12.7274 10.771L13.331 9.97379L12.7274 10.771ZM5.95724 10.771L5.3536 9.97379L5.95724 10.771ZM3.90017 15.7936L5.84338 12.4578L4.11523 11.4511L2.17202 14.7868L3.90017 15.7936ZM12.8413 12.4578L14.7845 15.7936L16.5126 14.7868L14.5694 11.4511L12.8413 12.4578ZM6.56089 11.5683C8.20061 10.3268 10.484 10.3268 12.1238 11.5683L13.331 9.97379C10.9773 8.1916 7.70739 8.1916 5.3536 9.97379L6.56089 11.5683ZM14.5694 11.4511C14.2826 10.9587 13.8968 10.4022 13.331 9.97379L12.1238 11.5683C12.3816 11.7635 12.6081 12.0575 12.8413 12.4578L14.5694 11.4511ZM5.84338 12.4578C6.07659 12.0575 6.30305 11.7635 6.56089 11.5683L5.3536 9.97379C4.7878 10.4022 4.40204 10.9587 4.11523 11.4511L5.84338 12.4578ZM12.9554 16.355L11.5411 14.9408L11.5411 14.9408L12.9554 16.355ZM5.01261 16.355L3.5984 17.7692L3.5984 17.7692L5.01261 16.355ZM16.355 5.01261L14.9408 6.42682L14.9408 6.42682L16.355 5.01261ZM16.355 12.9554L17.7692 14.3696L17.7692 14.3696L16.355 12.9554ZM5.04464 1.645L3.63043 0.230783L3.63043 0.230783L5.04464 1.645ZM12.9874 1.64499L14.4016 0.230781L14.4016 0.230781L12.9874 1.64499ZM1.64499 5.04465L3.05921 6.45886L3.05921 6.45886L1.64499 5.04465ZM1.645 12.9874L3.05921 11.5732L3.05921 11.5732L1.645 12.9874ZM3.05921 6.45886L6.45886 3.05921L3.63043 0.230783L0.23078 3.63043L3.05921 6.45886ZM11.5732 3.05921L14.9408 6.42682L17.7692 3.5984L14.4016 0.230781L11.5732 3.05921ZM14.9408 11.5411L11.5411 14.9408L14.3696 17.7692L17.7692 14.3696L14.9408 11.5411ZM6.42683 14.9408L3.05921 11.5732L0.230783 14.4016L3.5984 17.7692L6.42683 14.9408ZM11.5411 14.9408C10.1289 16.3531 7.8391 16.3531 6.42683 14.9408L3.5984 17.7692C6.57278 20.7436 11.3952 20.7436 14.3696 17.7692L11.5411 14.9408ZM14.9408 6.42682C16.3531 7.8391 16.3531 10.1289 14.9408 11.5411L17.7692 14.3696C20.7436 11.3952 20.7436 6.57277 17.7692 3.5984L14.9408 6.42682ZM6.45886 3.05921C7.87114 1.64693 10.1609 1.64693 11.5732 3.05921L14.4016 0.230781C11.4272 -2.7436 6.60481 -2.74359 3.63043 0.230783L6.45886 3.05921ZM0.230781 3.63043C-2.7436 6.60481 -2.74359 11.4272 0.230783 14.4016L3.05921 11.5732C1.64693 10.1609 1.64693 7.87114 3.05921 6.45886L0.230781 3.63043Z" fill="#E6E6E6" mask="url(#path-1-inside-1_99_396)"/>
</svg>
