<svg width="50" height="69" viewBox="0 0 50 69" fill="none" xmlns="http://www.w3.org/2000/svg">
<rect x="8" y="16" width="34" height="36.2885" rx="8" fill="#526EFF"/>
<path d="M33.824 42.044C32.9731 42.7188 31.9022 43.2616 30.6112 43.6724C29.3496 44.0831 28.1027 44.2885 26.8704 44.2885C24.6699 44.2885 22.7482 43.8924 21.1051 43.1002C19.4914 42.2787 18.2298 41.1198 17.3203 39.6235C16.4401 38.0978 16 36.2641 16 34.1222C16 31.9804 16.4841 30.1614 17.4523 28.665C18.4205 27.1394 19.6822 25.9804 21.2372 25.1883C22.8215 24.3961 24.4792 24 26.2103 24C27.9413 24 29.4377 24.2347 30.6993 24.7042C31.9902 25.1736 33.0905 25.7897 34 26.5526L31.0073 30.5134C30.5966 30.1907 30.0244 29.868 29.291 29.5452C28.5868 29.1932 27.7506 29.0171 26.7824 29.0171C25.9315 29.0171 25.154 29.2372 24.4499 29.6773C23.7457 30.1174 23.1883 30.7188 22.7775 31.4817C22.3667 32.2445 22.1614 33.1247 22.1614 34.1222C22.1614 35.0611 22.3814 35.9267 22.8215 36.7188C23.2616 37.511 23.8631 38.1418 24.6259 38.6112C25.4181 39.0513 26.3423 39.2714 27.3985 39.2714C28.0733 39.2714 28.6895 39.1834 29.2469 39.0073C29.8337 38.802 30.3325 38.5232 30.7433 38.1711L33.824 42.044Z" fill="white"/>
</svg>
